<svg xmlns="http://www.w3.org/2000/svg" viewBox="0 0 368.81 55.35"><defs><style>.cls-1{fill:#231f20;}</style></defs><title>logo</title><g id="Layer_2" data-name="Layer 2"><g id="Layer_1-2" data-name="Layer 1"><g id="_Group_" data-name="&lt;Group&gt;"><path id="_Compound_Path_" data-name="&lt;Compound Path&gt;" class="cls-1" d="M65.71,13.3C65.54,4,57.54,1.79,49.82,1.79l-33,0L0,53.71H33.43s24.84,1,27.46-13.14c.63-3.4,1.4-9.57-6.14-13.82l-1-.54S65.89,22.92,65.71,13.3Zm-24,22.13c-.27,2.75-3.61,2.75-3.61,2.75H25.43l1.76-5.42,11.79,0S42,32.68,41.73,35.43Zm4-15.53c-.45,2.62-3.31,2.69-4.52,2.71-2.84,0-10.84,0-10.84,0l1.72-5.33,11-.09S46.16,17.28,45.71,19.9Z"/><path id="_Compound_Path_2" data-name="&lt;Compound Path&gt;" class="cls-1" d="M312.22,13.3C312,4,304,1.79,296.32,1.79l-33,0-16.82,52h33.43s24.84,1,27.46-13.14c.63-3.4,1.4-9.57-6.14-13.82l-1-.54S312.4,22.92,312.22,13.3Zm-24,22.13c-.27,2.75-3.61,2.75-3.61,2.75H271.94l1.76-5.42,11.79,0S288.51,32.68,288.24,35.43Zm4-15.53c-.45,2.62-3.31,2.69-4.52,2.71-2.84,0-10.84,0-10.84,0l1.72-5.33,11-.09S292.67,17.28,292.22,19.9Z"/><path id="_Compound_Path_3" data-name="&lt;Compound Path&gt;" class="cls-1" d="M165.39,1.79h-27.7s-15.9,51-16.62,52c0,0,21.12-.11,32.05-.11s30.65-5.12,34.06-28.07C190.73,1.82,165.39,1.79,165.39,1.79Zm1.25,25.54a12.46,12.46,0,0,1-11.36,9.44h-8.61l5.81-18.29,5.81.05S169.28,18,166.64,27.32Z"/><path id="_Path_" data-name="&lt;Path&gt;" class="cls-1" d="M186.88,1.77l8.9,35.06s-5.91,16.93-5.43,17,20.3,0,20.3,0l4.94-15.52,32.5-36.47H225.95L211,20,207.28,1.71Z"/><path id="_Compound_Path_4" data-name="&lt;Compound Path&gt;" class="cls-1" d="M368.81,53.7,367.34,1.82H338.64L304.18,53.75h21.65l3.56-5.7H349l-.06,5.64ZM338.64,33.24l7.86-12.59h2.82l-.14,12.59Z"/><g id="_Group_2" data-name="&lt;Group&gt;"><path id="_Path_2" data-name="&lt;Path&gt;" class="cls-1" d="M90.24,29.36H82.43L105.63.15A30.44,30.44,0,0,0,101.9,0C95.22.19,72.4,1.64,65.35,26.5c-4,19.45,6.79,26.22,16.8,28.17Z"/><path id="_Path_3" data-name="&lt;Path&gt;" class="cls-1" d="M108.7.6,100.58,26h7.82L85.26,55.13a39.58,39.58,0,0,0,4.12.22S117.14,56.61,125,29.82C129.66,9.27,118.13,2.45,108.7.6Z"/></g><path id="_Path_4" data-name="&lt;Path&gt;" class="cls-1" d="M241,45.81a12.08,12.08,0,0,1-11.78,8.25c-5.49,0-8.73-3.59-7.64-9.05,1-5.11,5.74-9.11,12-9.11S242.67,40.44,241,45.81Z"/></g></g></g></svg>