<svg xmlns="http://www.w3.org/2000/svg" width="120" height="299.996"><circle cx="29.25" cy="80.064" r="9.104" fill="none" stroke="#1D1D1D" stroke-width="2"/><path fill="none" stroke="#1D1D1D" stroke-width="2" d="m25.579 77.96 3.671 2.888 5.518-3.886"/><path fill="none" stroke="#1D1D1D" stroke-width="1.87" d="M20.438 28.686h17.564m-17.564 5.848h17.583m-11.737-5.848v12.011m5.928-12.011v12.011"/><path fill="none" stroke="#1D1D1D" stroke-width="2" d="M26.565 127.688c-6.461 1.021-6.461 5.844-6.461 8.681m18.292-.001c0-2.845 0-7.683-6.508-8.687"/><circle cx="29.219" cy="122.906" r="5.469" fill="none" stroke="#1D1D1D" stroke-width="2"/><path fill="none" stroke="#1D1D1D" stroke-width="1.87" d="M20.388 22.634h17.664v17.664H20.388z"/><circle cx="90" cy="79.468" r="9.104" fill="none" stroke="#FFF" stroke-width="2"/><path fill="none" stroke="#FFF" stroke-width="2" d="M86.329 77.363 90 80.252l5.518-3.887"/><path fill="none" stroke="#FFF" stroke-width="1.87" d="M81.188 28.09h17.564m-17.564 5.848h17.583M87.034 28.09v12.011m5.928-12.011v12.011"/><path fill="none" stroke="#FFF" stroke-width="2" d="M87.314 127.092c-6.461 1.021-6.461 5.844-6.461 8.68m18.293-.001c0-2.844 0-7.682-6.508-8.686"/><circle cx="89.969" cy="122.311" r="5.469" fill="none" stroke="#FFF" stroke-width="2"/><path fill="none" stroke="#FFF" stroke-width="1.87" d="M81.168 22.634h17.663v17.664H81.168z"/><path fill="none" stroke="#000" stroke-width="4" d="m40.431 256.621-11.182 10.25-11.18-10.25" opacity=".27"/></svg>